<mxfile host="app.diagrams.net" modified="2023-09-08T08:02:39.837Z" agent="Mozilla/5.0 (Windows NT 10.0; Win64; x64) AppleWebKit/537.36 (KHTML, like Gecko) Chrome/111.0.0.0 Safari/537.36" version="21.7.2" etag="xIoR3J-CxWBiKEx9Q0OL" type="github">
  <diagram name="第 1 页" id="sz5othQmChyrDke8bgtN">
    <mxGraphModel>
      <root>
        <mxCell id="0" />
        <mxCell id="1" parent="0" />
      </root>
    </mxGraphModel>
  </diagram>
</mxfile>
